<svg xmlns="http://www.w3.org/2000/svg" viewBox="0 0 64 64" width="64" height="64">
  <!-- 背景圆形 -->
  <circle cx="32" cy="32" r="30" fill="#2c3e50" stroke="#e74c3c" stroke-width="4"/>
  
  <!-- 头部轮廓 -->
  <ellipse cx="32" cy="35" rx="18" ry="22" fill="#34495e"/>
  
  <!-- buzz cut 头发纹理 -->
  <g stroke="#95a5a6" stroke-width="0.5" opacity="0.8">
    <!-- 顶部头发线条 -->
    <line x1="20" y1="20" x2="44" y2="20"/>
    <line x1="19" y1="22" x2="45" y2="22"/>
    <line x1="18" y1="24" x2="46" y2="24"/>
    <line x1="17" y1="26" x2="47" y2="26"/>
    <line x1="16" y1="28" x2="48" y2="28"/>
    
    <!-- 侧面渐变线条 -->
    <line x1="14" y1="30" x2="18" y2="30"/>
    <line x1="46" y1="30" x2="50" y2="30"/>
    <line x1="15" y1="32" x2="19" y2="32"/>
    <line x1="45" y1="32" x2="49" y2="32"/>
    <line x1="16" y1="34" x2="20" y2="34"/>
    <line x1="44" y1="34" x2="48" y2="34"/>
  </g>
  
  <!-- 脸部特征 -->
  <ellipse cx="32" cy="42" rx="12" ry="15" fill="#ecf0f1"/>
  
  <!-- 眼睛 -->
  <circle cx="28" cy="38" r="1.5" fill="#2c3e50"/>
  <circle cx="36" cy="38" r="1.5" fill="#2c3e50"/>
  
  <!-- 鼻子 -->
  <line x1="32" y1="40" x2="32" y2="43" stroke="#bdc3c7" stroke-width="1"/>
  
  <!-- 嘴巴 -->
  <path d="M 29 46 Q 32 48 35 46" stroke="#2c3e50" stroke-width="1" fill="none"/>
  
  <!-- 胡须/下巴线条 -->
  <g stroke="#95a5a6" stroke-width="0.3" opacity="0.6">
    <line x1="24" y1="50" x2="26" y2="52"/>
    <line x1="26" y1="51" x2="28" y2="53"/>
    <line x1="36" y1="53" x2="38" y2="51"/>
    <line x1="38" y1="52" x2="40" y2="50"/>
  </g>
  
  <!-- 装饰性元素 - 剃刀图案 -->
  <g transform="translate(45, 15) rotate(45)">
    <rect x="0" y="0" width="8" height="2" fill="#e74c3c" rx="1"/>
    <rect x="2" y="-1" width="4" height="1" fill="#c0392b"/>
  </g>
</svg> 